<svg width="16" height="16" viewBox="0 0 16 16" fill="none" xmlns="http://www.w3.org/2000/svg">
<g clip-path="url(#clip0_2_93)">
<path d="M1.72398 11.6094C1.47391 11.8593 1.33339 12.1984 1.33331 12.552V14C1.33331 14.1768 1.40355 14.3464 1.52858 14.4714C1.6536 14.5965 1.82317 14.6667 1.99998 14.6667H3.99998C4.17679 14.6667 4.34636 14.5965 4.47138 14.4714C4.59641 14.3464 4.66665 14.1768 4.66665 14V13.3334C4.66665 13.1565 4.73688 12.987 4.86191 12.862C4.98693 12.7369 5.1565 12.6667 5.33331 12.6667H5.99998C6.17679 12.6667 6.34636 12.5965 6.47138 12.4714C6.59641 12.3464 6.66665 12.1768 6.66665 12V11.3334C6.66665 11.1565 6.73688 10.987 6.86191 10.862C6.98693 10.7369 7.1565 10.6667 7.33331 10.6667H7.44798C7.80157 10.6666 8.14066 10.5261 8.39065 10.276L8.93331 9.73336C9.85987 10.0561 10.8685 10.0549 11.7943 9.72986C12.7201 9.40483 13.5081 8.77525 14.0296 7.94411C14.551 7.11297 14.7749 6.12947 14.6647 5.15452C14.5545 4.17956 14.1167 3.27086 13.4229 2.57707C12.7291 1.88328 11.8204 1.44548 10.8455 1.33528C9.87053 1.22509 8.88704 1.44902 8.0559 1.97045C7.22476 2.49188 6.59517 3.27994 6.27015 4.20571C5.94512 5.13147 5.94388 6.14014 6.26665 7.06669L1.72398 11.6094Z" stroke="#D97706" stroke-width="1.33333" stroke-linecap="round" stroke-linejoin="round"/>
<path d="M11 5.33335C11.1841 5.33335 11.3334 5.18412 11.3334 5.00002C11.3334 4.81593 11.1841 4.66669 11 4.66669C10.8159 4.66669 10.6667 4.81593 10.6667 5.00002C10.6667 5.18412 10.8159 5.33335 11 5.33335Z" fill="black" stroke="#D97706" stroke-width="1.33333" stroke-linecap="round" stroke-linejoin="round"/>
</g>
<defs>
<clipPath id="clip0_2_93">
<path d="M0 0H16V16H0V0Z" fill="white"/>
</clipPath>
</defs>
</svg>
